<svg width="256" height="361" viewBox="0 0 256 361" xmlns="http://www.w3.org/2000/svg" preserveAspectRatio="xMidYMid">
  <path d="M127.844 360.088L23.662 331.166.445 70.766h255.11l-23.24 260.36-104.47 28.962z" fill="#264DE4"/>
  <path d="M212.417 314.547l19.86-222.49H128V337.95l84.417-23.403z" fill="#2965F1"/>
  <path d="M53.67 188.636l2.86 31.937H128v-31.937H53.67zM47.917 123.995l2.903 31.937H128v-31.937H47.917zM128 271.58l-.14.037-35.568-9.604-2.274-25.47h-32.06l4.474 50.145 65.42 18.16.148-.04V271.58z" fill="#EBEBEB"/>
  <path d="M60.484 0h38.68v16.176H76.66v16.176h22.505v16.175h-38.68V0zM106.9 0h38.682v14.066h-22.505v2.813h22.505v32.35h-38.68V34.463h22.505v-2.814H106.9V0zM153.32 0H192v14.066h-22.505v2.813H192v32.35h-38.68V34.463h22.504v-2.814H153.32V0z"/>
  <path d="M202.127 188.636l5.765-64.64H127.89v31.936h45.002l-2.906 32.704H127.89v31.937h39.327l-3.708 41.42-35.62 9.614v33.226l65.472-18.145.48-5.396 7.506-84.08.78-8.576z" fill="#FFF"/>
</svg>
