<svg width="256" height="256" viewBox="0 0 256 256" xmlns="http://www.w3.org/2000/svg" preserveAspectRatio="xMidYMid">
  <path d="M251.172 116.594L139.4 4.828c-6.434-6.437-16.874-6.437-23.315 0l-23.21 23.21 29.443 29.443c6.842-2.31 14.688-.76 20.142 4.694 5.48 5.49 7.02 13.402 4.652 20.266l28.375 28.376c6.865-2.365 14.786-.835 20.27 4.657 7.662 7.66 7.662 20.075 0 27.74-7.666 7.666-20.082 7.666-27.75 0-5.764-5.77-7.188-14.235-4.27-21.336l-26.462-26.462-.003 69.637c1.868.927 3.632 2.16 5.188 3.71 7.663 7.66 7.663 20.076 0 27.747-7.665 7.66-20.086 7.66-27.74 0-7.663-7.672-7.663-20.087 0-27.747 1.893-1.89 4.084-3.32 6.42-4.28V94.195c-2.336-.955-4.524-2.377-6.42-4.28-5.806-5.8-7.202-14.318-4.227-21.447L81.47 39.44 4.83 116.077c-6.44 6.443-6.44 16.884 0 23.322l111.775 111.767c6.435 6.438 16.873 6.438 23.316 0l111.252-111.25c6.438-6.44 6.438-16.886 0-23.323" fill="#DE4C36"/>
</svg>
