<svg width="256" height="361" viewBox="0 0 256 361" xmlns="http://www.w3.org/2000/svg" preserveAspectRatio="xMidYMid">
  <path d="M255.555 70.766l-23.24 260.36-104.47 28.962L23.66 331.166.445 70.766h255.11z" fill="#E44D26"/>
  <path d="M128 337.95l84.417-23.403 19.86-222.49H128V337.95z" fill="#F16529"/>
  <path d="M82.82 155.932H128v-31.937H47.917l.764 8.568 7.85 88.01H128v-31.937H85.74l-2.92-32.704zM90.018 236.542h-32.06l4.474 50.146 65.42 18.16.148-.04V271.58l-.14.037-35.568-9.604-2.274-25.47z" fill="#EBEBEB"/>
  <path d="M24.18 0h16.23v16.035h14.847V0h16.23v48.558h-16.23v-16.26H40.412v16.26H24.18V0zM92.83 16.103H78.544V0h44.814v16.103h-14.295v32.455h-16.23V16.103zM130.47 0h16.923l10.41 17.062L168.203 0h16.93v48.558h-16.164V24.49l-11.167 17.265h-.28L146.35 24.49v24.068h-15.88V0zM193.21 0h16.235v32.508h22.824v16.05h-39.06V0z"/>
  <path d="M127.89 220.573h39.327l-3.708 41.42-35.62 9.614v33.226l65.472-18.145.48-5.396 7.506-84.08.78-8.576H127.89v31.937zM127.89 155.854v.078h77.143l.64-7.178 1.456-16.19.762-8.57H127.89v31.86z" fill="#FFF"/>
</svg>
