<svg id="Calque_1" xmlns="http://www.w3.org/2000/svg" viewBox="126 35.4 292.1 31.8"><style>.st0{fill:#E30613;} .st1{fill:#164194;} .st2{fill:#FFFFFF;}</style><circle class="st0" cx="133.9" cy="43.6" r="7.9"/><path class="st1" d="M166.2 50.5V35.7c-9.7 0-15.4 4.4-18.3 8-2.9 3.7-7 7.9-13.8 7.9v14.8c7.6 0 13.2-2.9 17.2-7.3 4.1-4.2 6.7-8.6 14.9-8.6z"/><path class="st0" d="M176.7 35.7c-2 .1-3.1 1.9-3.1 3.7v23.4c0 2 1.5 3.6 3.3 3.6 1.7 0 3.1-1 3.1-3.5V39.3c0-2.4-.9-3.6-3.3-3.6zM191.8 46.9V63c0 2.5-1.3 3.4-3 3.4s-3.3-1.5-3.3-3.6V39.4c0-1.9 1.2-3.6 3.2-3.7 3.2 0 3.4 1.7 4.1 2.6l10.7 16V39.4c0-1.9 1.1-3.6 3.1-3.7 2.3 0 3.4 1.2 3.4 3.6V63c0 2.5-1.4 3.5-3.1 3.5-2.7 0-3-1.6-3.9-3l-11.2-16.6zM227.1 41.2V63c0 2.5-1.4 3.5-3.1 3.5s-3.3-1.5-3.3-3.6V41.1h-5.8c-2.3 0-3.6-.7-3.7-2.7 0-2.2.9-2.6 3.5-2.6h18.5c1.9 0 3.2.4 3.2 2.6 0 1.9-1.1 2.8-3.6 2.8h-5.7zM261.2 38.4c0-2-1.2-2.6-3.3-2.6h-17.5c-1.5 0-2.5 1.1-2.5 3.2v24.7c0 1.5.6 2.7 2.4 2.7h18.2c2.2 0 3-.8 3-2.3 0-1.8-.9-2.8-3.1-2.8h-13.9V53h12.4c1.1 0 2.5-.5 2.4-2.7-.1-1.6-1-2.4-3-2.4h-11.8v-7h13.6c1.7 0 3.1-.4 3.1-2.5zM288.2 61.7c-.2-1.1-.2-2.7-.2-3.5-.1-4.7-2.7-6.1-5.6-6.4 4.3-.6 6.2-3.2 6.2-7.3 0-7.9-6.8-8.7-11.6-8.7h-8c-2.1 0-4.6.5-4.6 4.2v22.3c0 3.2.9 4.2 3.2 4.2 2.4 0 3.3-.9 3.3-4.2v-8.8h4c3.2 0 7 .8 7 6.4 0 4.2.1 6.7 3.8 6.7 1 0 2.2-.5 2.8-1.8.5-1.1-.1-2.1-.3-3.1zm-10.8-12h-6.6v-9.2h6.5c2.1 0 5.2 1 5.2 4.5s-2.7 4.7-5.1 4.7z"/><path class="st1" d="M408.4 35.8h-18.3c-1.7 0-2.3.9-2.3 2.7v2c-.9-2.1-4.9-4.6-8.5-4.6h-10.6c-1.5 0-2.2.4-2.2 2.4v8.2c-1.1-3.1-5.2-11.1-15.5-11.1-4.9 0-10.7 2.1-13.8 6.9-2.4-4.1-6.3-6.4-11.6-6.4h-8.2c-1.6 0-2.5 0-2.5 2v14.4c-1.5-3.2-4.9-5.5-8.5-5.5h-4.5c-2.1 0-2.7-1.1-2.7-2.2 0-.6.4-1.3 1.4-1.3h9.8c1.3 0 2.3-.3 2.3-1.9v-3.6c0-1.5-.7-1.9-2.8-1.9h-10.1c-3.9 0-9.8 2.3-9.8 9.5s7.7 9.3 11.3 9.3h3.8c1.3 0 1.6.9 1.6 1.4 0 .8-.4 1.5-1.4 1.5h-11.5c-1.6 0-2 .6-2 2.1v4.8c0 1.2.4 1.9 2 1.9h12.7c2.7 0 8.5-2 8.5-6.4v4.5c0 1.1.3 1.9 1.5 1.9h5.5c1.4 0 1.5-1 1.4-2v-3.3c0-.8.6-1.2 1.4-1.2 3.5 0 10.4-1.2 10.4-4.2 1.5 5.3 7.3 11.5 15.8 11.5s15.5-7.1 15.5-13v9.6c0 1 0 2.5 1.6 2.5h5.7c1 0 1.5-.6 1.5-2v-8.7l6.7 9.5c.5.5.8 1 1.7 1h6.9c.9 0 .8-.8.3-1.5-.5-.8-5.5-8.4-5.5-8.4 3.4-2.1 5.3-4.4 5.3-9.3 0-.9-.1-1.8-.1-2.1h4.6v19.5c0 1 .4 1.9 2 1.9h5.9c1.6 0 1.5-.9 1.5-1.9V45h3.6c2.1 0 2.5-.4 2.5-2.2v-5.3c0-1.2-.5-1.7-2.3-1.7zM327 51.5h-3.8v-7.3h3.5c2.2 0 3.6 1.6 3.6 3.3.1 2.8-1.6 4.1-3.3 4zm51.8-.4h-3.4v-6.9h2.5c2.1 0 4.1 1.5 4.1 3.3 0 2.2-1.1 3.6-3.2 3.6zM351 57.5c-3.4 0-6.2-2.8-6.2-6.2s2.8-6.2 6.2-6.2 6.2 2.8 6.2 6.2-2.8 6.2-6.2 6.2z"/><path class="st2" d="M415.4 41.7c1.4 0 2.5-1.1 2.5-2.5s-1.1-2.5-2.5-2.5-2.5 1.1-2.5 2.5c-.1 1.4 1.1 2.5 2.5 2.5z"/><path class="st1" d="M415.4 41.9c-1.5 0-2.7-1.2-2.7-2.7s1.2-2.7 2.7-2.7 2.7 1.2 2.7 2.7c0 1.4-1.2 2.7-2.7 2.7zm0-5.1c-1.3 0-2.4 1.1-2.4 2.4 0 1.3 1.1 2.4 2.4 2.4s2.4-1.1 2.4-2.4c0-1.4-1.1-2.4-2.4-2.4z"/><g><path class="st1" d="M416.7 40.8h-.9l-.9-1.3v1.3h-.7v-3.3h1c.7 0 1.2.3 1.2 1 0 .4-.3.8-.7.9l1 1.4zM415 39c.5 0 .8-.1.8-.5s-.3-.5-.7-.5h-.1v1z"/></g></svg>