<?xml version="1.0" standalone="no"?>
<!DOCTYPE svg PUBLIC "-//W3C//DTD SVG 20010904//EN"
 "http://www.w3.org/TR/2001/REC-SVG-20010904/DTD/svg10.dtd">
<svg version="1.0" xmlns="http://www.w3.org/2000/svg"
 width="200.000000pt" height="200.000000pt" viewBox="0 0 200.000000 200.000000"
 preserveAspectRatio="xMidYMid meet">
<metadata>
Created by potrace 1.11, written by Peter Selinger 2001-2013
</metadata>
<g transform="translate(0.000000,200.000000) scale(0.100000,-0.100000)"
fill="#000000" stroke="none">
<path d="M898 1995 c-1 -1 -21 -5 -43 -8 -65 -9 -130 -25 -189 -48 -31 -11
-59 -21 -63 -21 -5 -1 -30 -14 -56 -30 -26 -15 -50 -28 -54 -28 -16 0 -144
-102 -203 -161 -291 -297 -370 -746 -196 -1119 56 -120 106 -192 201 -286 127
-127 260 -206 440 -260 82 -25 105 -27 260 -28 158 -1 177 1 269 27 54 16 106
32 115 37 9 4 46 23 84 42 187 92 346 258 442 461 70 147 87 226 91 407 2 136
0 166 -21 245 -32 127 -58 191 -115 285 -151 251 -403 424 -693 475 -64 11
-260 19 -269 10z"/>
</g>
</svg>
