<svg version="1" xmlns="http://www.w3.org/2000/svg" width="266.667" height="266.667" viewBox="0 0 200.000000 200.000000">
  <path d="M89.8.5c-.1.1-2.1.5-4.3.8-6.5.9-13 2.5-18.9 4.8-3.1 1.1-5.9 2.1-6.3 2.1-.5.1-3 1.4-5.6 3-2.6 1.5-5 2.8-5.4 2.8-1.6 0-14.4 10.2-20.3 16.1C-.1 59.8-8 104.7 9.4 142c5.6 12 10.6 19.2 20.1 28.6 12.7 12.7 26 20.6 44 26 8.2 2.5 10.5 2.7 26 2.8 15.8.1 17.7-.1 26.9-2.7 5.4-1.6 10.6-3.2 11.5-3.7.9-.4 4.6-2.3 8.4-4.2 18.7-9.2 34.6-25.8 44.2-46.1 7-14.7 8.7-22.6 9.1-40.7.2-13.6 0-16.6-2.1-24.5-3.2-12.7-5.8-19.1-11.5-28.5-15.1-25.1-40.3-42.4-69.3-47.5-6.4-1.1-26-1.9-26.9-1z"/>
</svg>
