<?xml version="1.0" encoding="utf-8"?>
<!-- Generator: Adobe Illustrator 21.0.0, SVG Export Plug-In . SVG Version: 6.00 Build 0)  -->
<svg version="1.1" id="Calque_1" xmlns="http://www.w3.org/2000/svg" xmlns:xlink="http://www.w3.org/1999/xlink" x="0px" y="0px"
	 width="333px" height="333px" viewBox="0 0 333 333" style="enable-background:new 0 0 333 333;" xml:space="preserve">
<style type="text/css">
	.st0{fill:#F42A73;stroke:#9F0E41;stroke-width:21;}
	.st1{fill-opacity:0.1;}
	.st2{fill:#FFFFFF;}
	.st3{fill:#EADCE0;}
	.st4{fill:none;}
</style>
<title>8FDCCBF2-B2F5-485F-B8FF-9739753490C1</title>
<g>
	<path class="st0" d="M321.8,167c0,85.5-69.4,155-155,155C81.4,322,12,252.4,12,167C12,81.4,81.3,12,167,12
		C252.4,12,321.8,81.4,321.8,167z"/>
	<path class="st1" d="M117,97.7l-0.7-0.4v-0.8l0.2-5c0-0.3,0.2-0.5,0.5-0.7c0.4-0.2,0.7-0.3,1-0.2h0.8l2,0.2c0.7,0,1.5,0,2.4-0.2
		c0.8,0,1.7-0.4,2.4-0.7c1-0.6,1.6-1.2,2-2c0.2-0.8,0.2-1.7-0.2-2.4c-0.5-1-1.3-1.7-2.5-2c-1.2-0.4-2.7-0.5-4.6-0.3h-3.8
		c-1.3,0-2.6-0.2-4-0.6c-1.2-0.4-2.3-1-3.4-1.8c-1-1-2-2-2.7-3.4c-0.5-1-1-2.4-1-3.7c0-1.4,0-2.7,0.5-4s1.3-2.5,2.3-3.7
		s2.5-2.2,4.3-3c1-0.7,2.3-1,3.5-1.3s2.3-0.5,3.4-0.5h2.7c1,0,1.6,0.2,2,0.3c0.4,0,0.7,0.2,0.8,0.5c0.2,0.3,0.3,0.6,0.2,0.8
		l-0.5,4.8c0,0.3-0.2,0.6-0.5,1c-0.2,0.3-0.5,0.4-0.8,0.4l-1-0.2h-4.6c-0.8,0-1.6,0.3-2.3,0.7c-0.8,0.4-1.4,1-1.7,1.7
		c-0.3,0.8-0.3,1.4,0,2c0.4,1,1.2,1.5,2.2,1.8s2.8,0.4,5,0.2h3.6c1.4,0,2.7,0,4,0.5c1.4,0.2,2.6,0.8,3.8,1.6c1.2,1,2.2,2,3,3.6
		c0.6,1.2,1,2.5,1,4c0,1.2,0,2.6-0.6,4c-0.5,1.3-1.3,2.6-2.4,3.8c-1,1.2-2.4,2.2-4,3s-3,1.3-4.3,1.6l-3.5,0.6h-2.7l-1.7-0.5
		 M143.2,60.4L136,62h-0.7c-0.2-0.2-0.4-0.4-0.4-0.7l-1.3-5.5V55c0.2,0,0.4-0.3,0.7-0.3l22-5c0.4,0,0.6,0,1,0.2l0.3,0.5L159,56
		c0,0.2,0,0.4-0.2,0.6c-0.2,0.3-0.4,0.4-0.6,0.5l-7.2,1.7l6,26.6v0.7l-0.8,0.5l-6,1.3h-0.7l-0.4-0.7l-5.8-26.6L143.2,60.4z
		 M184.6,73.3l-3.3-8.6l-4.5,8L184.6,73.3z M163.6,84.3c-0.3,0-0.6-0.3-0.8-0.6v-1l18.3-33c0.3-0.5,0.6-0.6,1-0.6h0.6l0.8,0.7
		L197,85c0.2,0.5,0,0.8,0,1c-0.3,0.3-0.6,0.4-1,0.4l-5.6-0.4c-0.5,0-0.8,0-1-0.3c-0.3-0.2-0.5-0.6-0.7-1l-1.5-4.2l-14-1l-2,4
		l-0.7,0.8c-0.3,0.2-0.7,0.3-1.2,0.3L163.6,84.3L163.6,84.3z M221.5,74.5c1,0.4,2,0.3,3-0.2c1-0.4,1.7-1.2,2-2.2c0.5-1,0.5-2,0-3
		c-0.4-1-1-1.6-2-2l-7-2.7l-3,7.4l7,2.8V74.5z M212.3,55.5c0-0.3,0.2-0.5,0.5-0.6c0.2-0.2,0.5-0.2,0.7,0l14.2,5.5
		c1.4,0.6,2.7,1.4,3.7,2.4s1.8,2,2.4,3.4c0.6,1.3,1,2.7,1,4.2c0,1.4-0.2,3-0.8,4.3c-1,2-2.3,3.7-4.3,5c-2,1-4,1.6-6.5,1.6l1.7,14.7
		c0,0.4-0.2,0.7-0.4,1c-0.3,0.2-0.6,0.2-1,0l-6.4-2.5c-0.2,0-0.3-0.2-0.4-0.3c0,0,0-0.3-0.2-0.4l-1.3-15l-3.3-1.3l-4.8,12
		c0,0.4-0.2,0.6-0.5,0.7h-0.7l-5.7-2.3c-0.2,0-0.4-0.2-0.5-0.4V87l12.5-31.6L212.3,55.5z"/>
	<path class="st2" d="M112,97.7l-0.8-0.4v-0.8l0.2-5c0-0.3,0.2-0.5,0.5-0.7s0.6-0.3,0.8-0.2h1l1.8,0.2c0.8,0,1.6,0,2.5-0.2
		c1,0,1.8-0.4,2.5-0.7c1-0.6,1.6-1.2,2-2c0.2-0.8,0.2-1.7-0.2-2.4c-0.5-1-1.3-1.7-2.5-2c-1-0.4-2.6-0.5-4.5-0.3h-3.8
		c-1.3,0-2.6-0.2-4-0.6c-1.2-0.4-2.4-1-3.4-1.8c-1-1-2-2-2.6-3.4c-0.6-1-1-2.4-1-3.7c0-1.4,0-2.7,0.5-4c0.4-1.3,1.2-2.5,2.2-3.7
		s2.5-2.2,4.2-3c1.2-0.7,2.4-1,3.6-1.3c1-0.3,2.2-0.5,3.2-0.5h2.8c0.8,0,1.5,0.2,2,0.3c0.3,0,0.5,0.2,0.7,0.5s0.3,0.6,0.2,0.8
		l-0.6,4.8c0,0.3-0.2,0.6-0.5,1c-0.3,0.3-0.6,0.4-1,0.4l-1-0.2h-4.5c-0.8,0-1.6,0.3-2.3,0.7c-0.8,0.4-1.4,1-1.7,1.7
		c-0.3,0.8-0.3,1.4,0,2c0.4,1,1,1.5,2.2,1.8c1,0.3,2.8,0.4,5,0.2h3.6c1.3,0,2.7,0,4,0.5c1.4,0.2,2.6,0.8,3.8,1.6c1.3,1,2.3,2,3,3.6
		c0.7,1.2,1,2.5,1,4c0.2,1.2,0,2.6-0.5,4c-0.5,1.3-1.3,2.6-2.4,3.8c-1,1.2-2.3,2.2-4,3c-1.5,0.8-3,1.3-4.2,1.6l-3.5,0.6h-2.6
		l-1.7-0.5 M138,60.4l-7,1.6h-0.8c-0.2-0.2-0.4-0.4-0.4-0.7l-1.2-5.5V55c0.2,0,0.4-0.3,0.7-0.3l22-5c0.4,0,0.6,0,1,0.2l0.3,0.5
		l1.2,5.4v0.6l-0.7,0.5l-7,1.7l6,26.6c0,0.3,0,0.5-0.3,0.7c0,0.3-0.3,0.4-0.6,0.5l-5.8,1.3h-0.8l-0.4-0.7l-6-26.6H138z M179.5,73.3
		l-3.4-8.6l-4.3,8l7.8,0.6H179.5z M158.5,84.3c-0.3,0-0.6-0.3-0.8-0.6v-1l18.3-33c0.2-0.5,0.5-0.6,1-0.6h0.5l0.8,0.7L192,85
		c0,0.5,0,0.8-0.2,1c-0.2,0.3-0.5,0.4-0.8,0.4l-5.7-0.4c-0.5,0-0.8,0-1-0.3c-0.3-0.2-0.5-0.6-0.7-1l-1.6-4.2l-13.8-1l-2,4l-0.8,0.8
		c-0.3,0.2-0.7,0.3-1.2,0.3L158.5,84.3L158.5,84.3z M216.3,74.5c1,0.4,2,0.3,3-0.2c1-0.4,1.8-1.2,2.2-2.2s0.4-2,0-3
		c-0.5-1-1.2-1.6-2.2-2l-7-2.7l-3,7.4l7,2.8V74.5z M207.3,55.5c0-0.3,0-0.5,0.4-0.6c0.2-0.2,0.5-0.2,0.7,0l14.2,5.5
		c1.4,0.6,2.7,1.4,3.7,2.4s1.8,2,2.4,3.4c0.6,1.3,1,2.7,1,4.2c0,1.4-0.3,3-0.8,4.3c-1,2-2.4,3.7-4.4,5c-2,1-4,1.6-6.5,1.6l1.8,14.7
		c0,0.4,0,0.7-0.4,1c-0.2,0.2-0.6,0.2-1,0l-6.3-2.5l-0.3-0.3c0,0,0-0.3-0.2-0.4l-1.3-15l-3.3-1.3l-5,12c0,0.4,0,0.6-0.4,0.7h-0.7
		L195,88c-0.2,0-0.4-0.2-0.5-0.4V87L207,55.4L207.3,55.5z"/>
	<path class="st1" d="M93.4,214c0.2-0.3,0.4-0.4,0.7-0.4c0.3,0,0.6,0,0.7,0.2l0.7,0.5l0.3,0.5v0.5l-4.5,26l24.2-10.4
		c0.2-0.2,0.4-0.2,0.6-0.2s0.4,0,0.5,0.2l0.7,0.6c0,0,0.3,0.3,0.3,0.5v0.8l-18,32.2c0,0.3-0.4,0.5-0.7,0.5c-0.3,0-0.5,0-0.8-0.2
		l-5-4c-0.2,0-0.3-0.3-0.3-0.6c-0.2-0.3,0-0.5,0-0.7l8.4-14.5l-18,8h-1.1l-0.8-0.7l-0.3-0.5v-0.6l3.7-19.3h-0.2L72.6,244l-0.6,0.2
		c-0.2,0-0.5,0-0.7-0.2l-5-4c-0.2-0.2-0.4-0.4-0.4-0.7s0-0.6,0.2-0.8l27.2-24.6L93.4,214z M134.2,265.2l-1-9.7H133l-6.5,7.2
		L134.2,265.2z M110.2,271c-0.5,0-0.7-0.4-0.8-0.7c0-0.3,0-0.6,0.3-1l27-29.2c0.4-0.3,0.7-0.3,1-0.2l0.6,0.2c0.4,0,0.6,0.4,0.7,0.8
		l5,39.6c0,0.4,0,0.7-0.4,1c-0.2,0.2-0.6,0.2-1,0l-5.6-1.8c-0.5,0-0.8-0.3-1-0.6c-0.2-0.2-0.3-0.7-0.4-1.2l-0.5-4.6l-14-4.5l-3,3.5
		c-0.3,0.2-0.6,0.5-1,0.6c-0.3,0.2-0.7,0.2-1.3,0L110,271H110.2z M156.6,246c0-0.3,0-0.6,0.4-0.8c0.2-0.2,0.4-0.3,0.7-0.2l6.4,0.2
		c0.4,0,0.6,0,0.8,0.3c0.2,0.2,0.3,0.5,0.3,0.7l-1,28.8l12.8,0.4c0.3,0,0.6,0,0.8,0.3c0.2,0.2,0.2,0.5,0.2,0.8l-0.2,5.8
		c0,0.3,0,0.6-0.3,0.7c-0.2,0.2-0.4,0.3-0.7,0.3l-20.2-0.7c-0.3,0-0.6,0-0.8-0.3c-0.2-0.2-0.2-0.5-0.2-0.8l1.2-35.6L156.6,246z
		 M186,252l-7.5,1.5h-0.8c-0.2-0.3-0.4-0.5-0.4-0.8l-1-5.8c-0.2-0.4,0-0.6,0-0.8c0.2-0.3,0.4-0.4,0.7-0.5l23.5-4.4
		c0.3,0,0.5,0,0.7,0.2c0.3,0,0.4,0.4,0.5,0.6l1,6v0.7l-0.8,0.4l-7.6,1.5l5.3,28.3c0,0.2,0,0.5-0.2,0.7c0,0.3-0.3,0.4-0.6,0.5l-6.5,1
		c-0.3,0.2-0.5,0-0.7,0c-0.3-0.2-0.4-0.4-0.5-0.7L186,252z M204.2,241c0-0.2-0.2-0.5,0-0.7c0-0.3,0.2-0.5,0.5-0.6l20-9.6h1
		c0,0.2,0.3,0.4,0.4,0.6l2.7,5.3v0.7c0,0.3-0.3,0.5-0.5,0.6l-13.5,6.4l3,6l11-5.3h0.7c0.3,0,0.5,0.3,0.6,0.5l2.5,5.2
		c0.2,0.3,0.2,0.5,0,0.8c0,0.3-0.2,0.5-0.4,0.6l-11,5.3l3,6.4l13.6-6.4h0.7c0.3,0,0.5,0.2,0.6,0.5l2.4,5.3c0.2,0.2,0.2,0.5,0,0.8
		c0,0.2-0.2,0.4-0.4,0.6l-20,9.5c-0.4,0-0.7,0.2-1,0c-0.2,0-0.4-0.2-0.5-0.5l-15.3-32L204.2,241z M252,228.4c0.8-0.7,1.2-1.7,1.2-3
		c0-1-0.4-2-1-3c-1-0.8-2-1.2-3-1.3c-1,0-2,0.4-3,1.2l-5.8,5.3l5.6,6.3l6-5.4V228.4z M229.7,228.4l-0.3-0.8c0-0.3,0-0.6,0.3-0.8
		l12-10.8c1-1,2.5-2,4-2.4c1.4-0.5,3-0.7,4.4-0.6c1.6,0,3,0.4,4.4,1s2.6,1.5,3.7,2.7c1.8,2,2.7,4,3,6.4c0,2.5-0.4,4.8-1.5,7
		l14.7,5.3c0.3,0,0.6,0.4,0.7,0.7c0,0.4,0,0.7-0.5,1l-5.3,4.8c0,0.2-0.3,0.3-0.5,0.3h-0.4l-15-5.7l-2.7,2.5l9.3,10v0.7
		c0,0.3,0,0.5-0.2,0.7l-4.7,4.3c-0.2,0.2-0.4,0.3-0.7,0.3c-0.3,0-0.5,0-0.7-0.4L229.7,228.4L229.7,228.4z"/>
	<path class="st2" d="M88,214c0.2-0.3,0.5-0.4,0.7-0.4c0.3,0,0.5,0,0.7,0.2l0.6,0.5l0.3,0.5c0,0.2,0.2,0.3,0,0.5l-4.5,26l24.3-10.4
		c0.2-0.2,0.4-0.2,0.6-0.2s0.4,0,0.5,0.2l0.8,0.6c0.2,0,0.3,0.3,0.3,0.5c0.2,0.4,0,0.6,0,0.8L94.4,265c-0.2,0.3-0.4,0.5-0.7,0.5
		c-0.3,0-0.6,0-1-0.2l-4.8-4c-0.3,0-0.5-0.3-0.5-0.6V260l8.5-14.5l-18,8H77l-0.8-0.7c-0.2,0-0.3-0.3-0.3-0.5
		c-0.2-0.2-0.2-0.4-0.2-0.6l3.7-19.3L67.2,244l-0.7,0.2c-0.2,0-0.5,0-0.7-0.2l-5-4c-0.3-0.2-0.5-0.4-0.5-0.7s0-0.6,0.4-0.8L88,214z
		 M129,265.2l-1.3-9.7l-6.6,7.2L129,265.2L129,265.2z M104.7,271c-0.3,0-0.6-0.4-0.7-0.7c0-0.3,0-0.6,0.3-1l27-29.2
		c0.4-0.3,0.7-0.3,1.2-0.2l0.5,0.2c0.3,0,0.6,0.4,0.7,0.8l5,39.6c0,0.4-0.2,0.7-0.4,1c-0.3,0.2-0.6,0.2-1,0l-5.7-1.8
		c-0.5,0-0.8-0.3-1-0.6l-0.4-1.2l-0.5-4.6l-14-4.5l-3,3.5c-0.3,0.2-0.6,0.5-1,0.6c-0.4,0.2-0.8,0.2-1.3,0l-5.7-1.8L104.7,271z
		 M151.3,246c0-0.3,0-0.6,0.3-0.8c0.2-0.2,0.4-0.3,0.7-0.2l6.4,0.2c0.3,0,0.5,0,0.7,0.3c0.2,0.2,0.3,0.5,0.3,0.7l-1,28.8l12.8,0.4
		c0.3,0,0.5,0,0.7,0.3c0.2,0.2,0.3,0.5,0.3,0.8l-0.3,5.8c0,0.3,0,0.6-0.3,0.7c-0.3,0.2-0.5,0.3-0.8,0.3l-20.2-0.7
		c-0.3,0-0.5,0-0.7-0.3c-0.2-0.2-0.3-0.5-0.3-0.8l1.3-35.6L151.3,246z M180.7,252l-7.6,1.5h-0.7l-0.4-0.8l-1.2-5.8
		c0-0.4,0-0.6,0.2-0.8c0-0.3,0.4-0.4,0.6-0.5l23.5-4.4c0.4,0,0.7,0,1,0.2l0.3,0.6l1,6v0.7l-0.7,0.4l-7.6,1.5l5.3,28.3
		c0,0.2,0,0.5-0.2,0.7c0,0.3-0.2,0.4-0.5,0.5l-6.4,1c0,0.2-0.4,0-0.6,0c-0.3-0.2-0.4-0.4-0.5-0.7l-5.3-28.2L180.7,252z M198.8,241
		v-0.7c0-0.3,0.2-0.5,0.5-0.6l20-9.6h1c0,0.2,0.3,0.4,0.5,0.6l2.5,5.3v0.7c0,0.3-0.2,0.5-0.5,0.6l-13.5,6.4l3,6l11-5.3h0.8
		c0.3,0,0.5,0.3,0.6,0.5l2.6,5.2v0.8c0,0.3-0.3,0.5-0.5,0.6l-11,5.3l3,6.4l13.5-6.4h0.8c0.2,0,0.4,0.2,0.5,0.5l2.6,5.3
		c0.2,0.2,0.2,0.5,0,0.8c0,0.2-0.2,0.4-0.4,0.6l-20,9.5c-0.4,0-0.6,0.2-1,0c-0.2,0-0.4-0.2-0.5-0.5l-15.2-32L198.8,241z
		 M246.6,228.4c0.8-0.7,1.2-1.7,1.2-3c0-1-0.3-2-1-3c-1-0.8-1.8-1.2-3-1.3c-1,0-2,0.4-3,1.2l-5.8,5.3l5.7,6.3l6-5.4L246.6,228.4z
		 M224.3,228.4l-0.3-0.8c0-0.3,0-0.6,0.4-0.8l12-10.8c1-1,2.4-2,3.8-2.4c1.5-0.5,3-0.7,4.5-0.6c1.5,0,3,0.4,4.3,1
		c1.4,0.6,2.7,1.5,3.8,2.7c1.6,2,2.5,4,2.7,6.4c0.2,2.5-0.2,4.8-1.4,7l14.8,5.3c0.3,0,0.6,0.4,0.7,0.7c0,0.4,0,0.7-0.4,1l-5.2,4.8
		c0,0.2-0.3,0.3-0.5,0.3h-0.4l-15-5.7l-2.7,2.5l9.2,10.2c0.2,0.2,0.3,0.4,0.3,0.7c0,0.3-0.2,0.5-0.4,0.7l-4.7,4.3
		c-0.2,0.2-0.5,0.3-0.8,0.3s-0.6,0-0.8-0.4l-24-26.3L224.3,228.4z M113.3,146l35.7-5.2l16-32.3v49.2"/>
	<path class="st3" d="M165,157.7l25.7,13.6l6,35.6l-32-17"/>
	<path class="st2" d="M139,171.2l-6.2,35.5l32-16.7l0.2-32.3 M216.6,146.2l-26,25L165,157.7 M165,157.7l-16-17l-35.7,5.2"/>
	<path class="st4" d="M139,171.2l-6,35.6l32-49 M165,157.7l51.7-11.5L181,141"/>
	<path class="st3" d="M113.3,145.8L139,171l26-13.4 M165,108.4l16,32.4l35.7,5.3L165,157.7"/>
</g>
</svg>
