<?xml version="1.0" encoding="utf-8"?>
<!-- Generator: Adobe Illustrator 19.2.1, SVG Export Plug-In . SVG Version: 6.00 Build 0)  -->
<svg version="1.1" id="Layer_1" xmlns="http://www.w3.org/2000/svg" xmlns:xlink="http://www.w3.org/1999/xlink" x="0px" y="0px"
	 width="70px" height="70.3px" viewBox="0 0 70 70.3" style="enable-background:new 0 0 70 70.3;" xml:space="preserve">
<style type="text/css">
	.st0{fill:#F42A73;}
	.st1{fill:#B21454;}
	.st2{opacity:0.2;}
	.st3{fill:#9F0E41;}
	.st4{fill:#FFFFFF;}
	.st5{fill:#EADCE0;}
	.st6{fill:url(#SVGID_1_);}
	.st7{fill:url(#SVGID_2_);}
</style>
<g>
	<g>
		<path class="st0" d="M35,67.8c-17.9,0-32.5-14.6-32.5-32.5C2.5,17.4,17.1,2.8,35,2.8s32.5,14.6,32.5,32.5
			C67.5,53.2,53,67.8,35,67.8z"/>
		<path class="st1" d="M35,5.3c16.5,0,30,13.5,30,30s-13.5,30-30,30s-30-13.5-30-30S18.5,5.3,35,5.3 M35,0.3c-19.3,0-35,15.7-35,35
			s15.7,35,35,35c19.3,0,35-15.7,35-35S54.4,0.3,35,0.3L35,0.3z"/>
	</g>
	<g>
		<g class="st2">
			<path class="st3" d="M25.8,19c-0.1,0-0.1,0-0.1-0.1v-0.1l0.1-0.9c0-0.1,0-0.1,0.1-0.2c0.1,0,0.1,0,0.2,0c0,0,0.1,0,0.2,0
				s0.2,0,0.4,0c0.1,0,0.3,0,0.4,0c0.2,0,0.3-0.1,0.5-0.1c0.2-0.1,0.3-0.2,0.4-0.3c0.1-0.1,0.1-0.3,0-0.4c-0.1-0.2-0.2-0.3-0.4-0.4
				c-0.2-0.1-0.5-0.1-0.8-0.1c-0.2,0-0.4,0-0.7,0c-0.2,0-0.5-0.1-0.7-0.1c-0.2-0.1-0.4-0.2-0.6-0.4c-0.2-0.2-0.3-0.4-0.5-0.6
				c-0.1-0.2-0.1-0.4-0.2-0.7c0-0.2,0-0.5,0.1-0.7s0.2-0.4,0.4-0.7c0.2-0.2,0.5-0.4,0.8-0.5c0.2-0.1,0.4-0.2,0.7-0.2
				c0.2,0,0.4-0.1,0.6-0.1s0.4,0,0.5,0s0.3,0,0.3,0.1c0.1,0,0.1,0,0.1,0.1s0,0.1,0,0.1l-0.1,0.8c0,0.1,0,0.1-0.1,0.2
				c0,0.1-0.1,0.1-0.2,0.1c0,0-0.1,0-0.2,0s-0.2,0-0.4,0c-0.1,0-0.3,0-0.4,0c-0.2,0-0.3,0.1-0.4,0.1c-0.2,0.1-0.3,0.2-0.3,0.3
				c-0.1,0.1-0.1,0.3,0,0.4c0.1,0.2,0.2,0.3,0.4,0.3c0.2,0.1,0.5,0.1,0.9,0.1c0.2,0,0.4,0,0.7,0c0.2,0,0.5,0.1,0.7,0.1
				c0.2,0.1,0.5,0.2,0.7,0.4s0.4,0.4,0.5,0.7c0.1,0.2,0.1,0.5,0.2,0.7c0,0.2,0,0.5-0.1,0.7s-0.2,0.5-0.4,0.7
				c-0.2,0.2-0.5,0.4-0.8,0.5s-0.5,0.2-0.8,0.3c-0.2,0-0.4,0.1-0.6,0.1s-0.3,0-0.5,0C26,19.1,25.9,19,25.8,19z"/>
			<path class="st3" d="M30.8,12.4l-1.3,0.2h-0.1l-0.1-0.1l-0.2-1v-0.1l0.1-0.1l4.1-0.7c0.1,0,0.1,0,0.1,0l0.1,0.1l0.2,1v0.1
				l-0.1,0.1l-1.3,0.2l0.9,4.9v0.1l-0.1,0.1L32,17.4h-0.1l-0.1-0.1L30.8,12.4z"/>
			<path class="st3" d="M34.3,16.9c-0.1,0-0.1,0-0.1-0.1s0-0.1,0-0.2l3.4-6c0-0.1,0.1-0.1,0.2-0.1h0.1c0.1,0,0.1,0,0.1,0.1l2.4,6.5
				c0,0.1,0,0.1,0,0.2c0,0-0.1,0.1-0.2,0.1l-1-0.1c-0.1,0-0.1,0-0.2-0.1c0,0-0.1-0.1-0.1-0.2l-0.3-0.8L36.1,16l-0.4,0.7
				c0,0.1-0.1,0.1-0.1,0.1c-0.1,0-0.1,0.1-0.2,0.1L34.3,16.9z M38.2,14.9l-0.6-1.6l0,0l-0.8,1.5L38.2,14.9z"/>
			<path class="st3" d="M43.6,11.9C43.7,11.8,43.7,11.8,43.6,11.9c0.1-0.1,0.2-0.1,0.2-0.1l2.6,1.1c0.3,0.1,0.5,0.3,0.7,0.5
				s0.3,0.4,0.4,0.7c0.1,0.2,0.1,0.5,0.2,0.8c0,0.3-0.1,0.5-0.2,0.8c-0.2,0.4-0.4,0.7-0.8,0.9c-0.4,0.2-0.8,0.3-1.2,0.3l0.3,2.7
				c0,0.1,0,0.1-0.1,0.2c0,0-0.1,0-0.2,0l-1.1-0.5c0,0-0.1,0-0.1-0.1v-0.1l-0.2-2.8l-0.6-0.2l-0.9,2.2l-0.1,0.1h-0.1l-1-0.4
				l-0.1-0.1v-0.1L43.6,11.9z M45.2,15.4c0.2,0.1,0.4,0.1,0.5,0c0.2-0.1,0.3-0.2,0.4-0.4c0.1-0.2,0.1-0.4,0-0.5
				c-0.1-0.2-0.2-0.3-0.4-0.4l-1.3-0.5L44,14.8L45.2,15.4z"/>
		</g>
		<g>
			<g>
				<path class="st4" d="M25.2,18.4c-0.1,0-0.1,0-0.1-0.1s0-0.1,0-0.1l0.1-0.9c0-0.1,0-0.1,0.1-0.2c0.1,0,0.1,0,0.2,0
					c0,0,0.1,0,0.2,0s0.2,0,0.4,0c0.1,0,0.3,0,0.4,0c0.2,0,0.3-0.1,0.5-0.1c0.2-0.1,0.3-0.2,0.4-0.3c0.1-0.1,0.1-0.3,0-0.4
					c-0.1-0.2-0.2-0.3-0.4-0.4c-0.2-0.1-0.5-0.1-0.8-0.1c-0.2,0-0.4,0-0.7,0c-0.2,0-0.5-0.1-0.7-0.1c-0.2-0.1-0.4-0.2-0.6-0.4
					s-0.3-0.4-0.5-0.6c-0.1-0.2-0.1-0.4-0.2-0.7c0-0.2,0-0.5,0.1-0.7s0.2-0.4,0.4-0.7c0.2-0.2,0.5-0.4,0.8-0.5
					c0.2-0.1,0.4-0.2,0.7-0.2c0.2,0,0.4-0.1,0.6-0.1s0.4,0,0.5,0s0.3,0,0.3,0.1c0.1,0,0.1,0,0.1,0.1s0,0.1,0,0.1L26.7,13
					c0,0.1,0,0.1-0.1,0.2c0,0.1-0.1,0.1-0.2,0.1c0,0-0.1,0-0.2,0s-0.2,0-0.4,0c-0.1,0-0.3,0-0.4,0c-0.2,0-0.3,0.1-0.4,0.1
					c-0.2,0.1-0.3,0.2-0.3,0.3c-0.1,0.1-0.1,0.3,0,0.4c0.1,0.2,0.2,0.3,0.4,0.3c0.2,0.1,0.5,0.1,0.9,0.1c0.2,0,0.4,0,0.7,0
					c0.2,0,0.5,0.1,0.7,0.1c0.2,0.1,0.5,0.2,0.7,0.4s0.4,0.4,0.5,0.7c0.1,0.2,0.1,0.5,0.2,0.7c0,0.2,0,0.5-0.1,0.7s-0.2,0.5-0.4,0.7
					c-0.2,0.2-0.5,0.4-0.8,0.5s-0.5,0.2-0.8,0.3c-0.2,0-0.4,0.1-0.6,0.1s-0.3,0-0.5,0C25.4,18.5,25.3,18.4,25.2,18.4z"/>
				<path class="st4" d="M30.2,11.8L28.9,12h-0.1l-0.1-0.1l-0.2-1v-0.1l0.1-0.1l4.1-0.7c0.1,0,0.1,0,0.1,0l0.1,0.1l0.2,1v0.1
					L33,11.3l-1.3,0.2l0.9,4.9v0.1l-0.1,0.1l-1.1,0.2h-0.1l-0.1-0.1L30.2,11.8z"/>
				<path class="st4" d="M33.7,16.3c-0.1,0-0.1,0-0.1-0.1s0-0.1,0-0.2l3.4-6c0-0.1,0.1-0.1,0.2-0.1h0.1c0.1,0,0.1,0,0.1,0.1l2.4,6.5
					c0,0.1,0,0.1,0,0.2c0,0-0.1,0.1-0.2,0.1l-1-0.1c-0.1,0-0.1,0-0.2-0.1c0,0-0.1-0.1-0.1-0.2L38,15.6l-2.5-0.2l-0.4,0.7
					c0,0.1-0.1,0.1-0.1,0.1c-0.1,0-0.1,0.1-0.2,0.1L33.7,16.3z M37.6,14.3L37,12.8l0,0l-0.8,1.5H37.6z"/>
				<path class="st4" d="M43,11.3C43.1,11.2,43.1,11.2,43,11.3c0.1-0.1,0.2-0.1,0.2-0.1l2.6,1.1c0.3,0.1,0.5,0.3,0.7,0.5
					s0.3,0.4,0.4,0.7c0.1,0.2,0.1,0.5,0.2,0.8c0,0.3-0.1,0.5-0.2,0.8c-0.2,0.4-0.4,0.7-0.8,0.9c-0.4,0.2-0.8,0.3-1.2,0.3l0.3,2.7
					c0,0.1,0,0.1-0.1,0.2c0,0-0.1,0-0.2,0l-1.1-0.5c0,0-0.1,0-0.1-0.1v-0.1l-0.2-2.8l-0.6-0.2l-0.9,2l-0.1,0.1h-0.1l-1-0.4l-0.1-0.1
					V17L43,11.3z M44.6,14.8c0.2,0.1,0.4,0.1,0.5,0c0.2-0.1,0.3-0.2,0.4-0.4c0.1-0.2,0.1-0.4,0-0.5c-0.1-0.2-0.2-0.3-0.4-0.4
					L43.8,13l-0.6,1.3L44.6,14.8z"/>
			</g>
		</g>
	</g>
	<g>
		<g class="st2">
			<path class="st3" d="M16.5,37.5h0.1l0.1,0.1l0.2,1.1v0.1l-0.1,0.1l-2.3,0.5l0.6,2.6l2.3-0.5h0.1l0.1,0.1l0.2,1.1v0.1l-0.1,0.1
				l-6,1.3h-0.1l-0.1-0.1L11.3,43v-0.1l0.1-0.1l2.4-0.5l-0.6-2.6l-2.4,0.5h-0.1l-0.1-0.1L10.4,39v-0.1l0.1-0.1L16.5,37.5z"/>
			<path class="st3" d="M15.5,45.7c0.4-0.3,0.8-0.4,1.2-0.5c0.4-0.1,0.9-0.1,1.3,0s0.8,0.2,1.2,0.5c0.4,0.2,0.7,0.6,0.9,0.9
				c0.3,0.4,0.4,0.8,0.5,1.2s0.1,0.9,0,1.3c-0.1,0.4-0.2,0.8-0.5,1.2c-0.2,0.4-0.6,0.7-0.9,0.9c-0.4,0.3-0.8,0.4-1.2,0.5
				c-0.4,0.1-0.9,0.1-1.3,0s-0.8-0.2-1.2-0.5c-0.4-0.2-0.7-0.6-0.9-0.9c-0.3-0.4-0.4-0.8-0.5-1.2s-0.1-0.9,0-1.3
				c0.1-0.4,0.2-0.8,0.5-1.2C14.8,46.2,15.1,45.9,15.5,45.7z M16.3,46.9c-0.2,0.1-0.4,0.3-0.5,0.5s-0.2,0.4-0.3,0.7
				c0,0.2,0,0.5,0,0.7s0.1,0.5,0.3,0.7c0.1,0.2,0.3,0.4,0.5,0.5s0.4,0.2,0.7,0.3c0.2,0,0.5,0,0.7,0s0.5-0.1,0.7-0.3
				c0.2-0.1,0.4-0.3,0.5-0.5s0.2-0.4,0.3-0.7c0-0.2,0.1-0.5,0-0.7c0-0.2-0.1-0.5-0.3-0.7c-0.1-0.2-0.3-0.4-0.5-0.5s-0.4-0.2-0.7-0.3
				c-0.2,0-0.5,0-0.7,0C16.7,46.7,16.5,46.8,16.3,46.9z"/>
			<path class="st3" d="M22.6,50l0.1-0.1h0.1l1.8,1.4c0.2,0.2,0.4,0.4,0.5,0.6c0.1,0.2,0.2,0.5,0.3,0.8c0,0.3,0,0.5,0,0.8
				c-0.1,0.3-0.2,0.5-0.4,0.7c-0.2,0.2-0.4,0.4-0.6,0.5s-0.5,0.2-0.8,0.3c-0.3,0-0.5,0-0.8,0c-0.3-0.1-0.5-0.2-0.7-0.4L21.3,54
				L20,55.8l-0.1,0.1h-0.1l-0.9-0.7l-0.1-0.1V55L22.6,50z M22.8,53.5c0.2,0.1,0.3,0.2,0.5,0.1c0.2,0,0.4-0.1,0.5-0.3
				s0.2-0.3,0.1-0.5c0-0.2-0.1-0.3-0.3-0.5L23,51.9L22.1,53L22.8,53.5z"/>
			<path class="st3" d="M26.2,53.2c0-0.1,0-0.1,0.1-0.1c0,0,0.1,0,0.2,0l1,0.3c0,0,0.1,0,0.1,0.1v0.1l-0.2,3.2l0,0l2.3-2.7
				C29.9,54,30,54,30,54h0.2c0.1,0,0.1,0.1,0.1,0.1l0.4,3.6l0,0l1.7-2.8c0,0,0.1,0,0.1-0.1h0.1l1,0.3c0.1,0,0.1,0.1,0.1,0.1
				s0,0.1,0,0.2l-3.5,5.5c0,0.1-0.1,0.1-0.2,0.1h-0.1c-0.1,0-0.1-0.1-0.1-0.1l-0.5-4.1l0,0l-2.7,3.1C26.5,60,26.5,60,26.4,60h-0.1
				c0,0-0.1,0-0.1-0.1v-0.1L26.2,53.2z"/>
			<path class="st3" d="M34.4,58.4c0-0.5,0-0.9,0.1-1.3c0.1-0.4,0.3-0.8,0.6-1.1s0.6-0.6,1-0.8s0.8-0.3,1.3-0.4c0.5,0,0.9,0,1.3,0.1
				c0.4,0.1,0.8,0.3,1.1,0.6s0.6,0.6,0.8,1s0.3,0.8,0.4,1.3c0,0.5,0,0.9-0.1,1.3c-0.1,0.4-0.3,0.8-0.6,1.1s-0.6,0.6-1,0.8
				s-0.8,0.3-1.3,0.4c-0.5,0-0.9,0-1.3-0.1c-0.4-0.1-0.8-0.3-1.1-0.6s-0.6-0.6-0.8-1S34.5,58.9,34.4,58.4z M35.9,58.3
				c0,0.3,0.1,0.5,0.2,0.7c0.1,0.2,0.3,0.4,0.5,0.5c0.2,0.2,0.4,0.3,0.6,0.3c0.2,0.1,0.5,0.1,0.7,0.1c0.3,0,0.5-0.1,0.7-0.2
				c0.2-0.1,0.4-0.3,0.5-0.5s0.3-0.4,0.3-0.6c0.1-0.2,0.1-0.5,0.1-0.7c0-0.3-0.1-0.5-0.2-0.7c-0.1-0.2-0.3-0.4-0.5-0.6
				c-0.2-0.2-0.4-0.3-0.6-0.3c-0.2-0.1-0.5-0.1-0.7-0.1c-0.3,0-0.5,0.1-0.7,0.2c-0.2,0.1-0.4,0.3-0.5,0.5c-0.2,0.2-0.3,0.4-0.3,0.6
				C35.9,57.8,35.9,58,35.9,58.3z"/>
			<path class="st3" d="M41.7,54.3L41.7,54.3c0-0.1,0-0.2,0.1-0.2l2.5-1.2c0.3-0.1,0.5-0.2,0.8-0.2s0.5,0,0.8,0.1
				c0.2,0.1,0.5,0.2,0.7,0.4s0.4,0.4,0.5,0.6c0.2,0.4,0.2,0.8,0.1,1.2c-0.1,0.4-0.3,0.8-0.6,1.1l2.2,1.6c0.1,0,0.1,0.1,0.1,0.2
				c0,0.1,0,0.1-0.1,0.1l-1.1,0.5h-0.1h-0.1l-2.2-1.7L44.7,57l1,2.1v0.1c0,0,0,0.1-0.1,0.1l-1,0.5h-0.1c0,0-0.1,0-0.1-0.1L41.7,54.3
				z M45.4,55.4c0.2-0.1,0.3-0.2,0.4-0.4c0.1-0.2,0-0.4,0-0.6c-0.1-0.2-0.2-0.3-0.4-0.4c-0.2-0.1-0.4-0.1-0.5,0l-1.2,0.6l0.6,1.3
				L45.4,55.4z"/>
			<path class="st3" d="M47.1,51.5c0,0-0.1-0.1-0.1-0.2c0-0.1,0-0.1,0.1-0.2l0.8-0.8c0,0,0.1-0.1,0.2-0.1c0.1,0,0.1,0,0.2,0.1
				l1.7,1.8l-0.3-3.3v-0.1v-0.1l0.8-0.8c0.1-0.1,0.1-0.1,0.2,0c0.1,0,0.1,0.1,0.1,0.2l0.3,3.5L55,52c0.1,0,0.1,0.1,0.2,0.1
				c0,0.1,0,0.2-0.1,0.2l-0.9,0.9c0,0-0.1,0-0.1,0.1H54l-3.6-0.6l1.9,2c0,0,0.1,0.1,0.1,0.2c0,0.1,0,0.1-0.1,0.2l-0.8,0.8
				c0,0-0.1,0.1-0.2,0.1c-0.1,0-0.1,0-0.2-0.1L47.1,51.5z"/>
			<path class="st3" d="M51.3,47L51.3,47l-0.1-0.2l1.8-3.4l0.1-0.1h0.1l0.9,0.5l0.1,0.1V44L53,46.3l1,0.6l1-1.9l0.1-0.1h0.1l0.9,0.5
				l0.1,0.1v0.1l-1,1.9l1.1,0.6l1.2-2.3l0.1-0.1h0.1l0.9,0.5l0.1,0.1v0.1l-1.8,3.4l-0.1,0.1h-0.1L51.3,47z"/>
			<path class="st3" d="M53.7,42.2C53.7,42.2,53.6,42.2,53.7,42.2L53.6,42l0.6-2.7c0.1-0.3,0.2-0.5,0.3-0.7s0.3-0.4,0.6-0.5
				c0.2-0.1,0.5-0.2,0.7-0.3c0.3-0.1,0.5-0.1,0.8,0c0.4,0.1,0.8,0.3,1,0.6c0.3,0.3,0.4,0.7,0.5,1.1l2.6-0.8c0.1,0,0.1,0,0.2,0
				c0.1,0,0.1,0.1,0.1,0.2l-0.2,1.2v0.1c0,0,0,0-0.1,0L58,40.9l-0.1,0.6L60,42c0,0,0.1,0,0.1,0.1v0.1l-0.2,1.1c0,0,0,0.1-0.1,0.1
				h-0.1L53.7,42.2z M56.8,40c0-0.2,0-0.4-0.1-0.5c-0.1-0.2-0.3-0.3-0.5-0.3s-0.4,0-0.5,0.1c-0.2,0.1-0.3,0.3-0.3,0.4L55.1,41
				l1.4,0.3L56.8,40z"/>
		</g>
		<g>
			<g>
				<path class="st4" d="M15.9,36.9H16l0.1,0.1l0.2,1.1v0.1l-0.1,0.1L14,38.9l0.6,2.6l2.3-0.5H17l0.1,0.1l0.2,1.1v0.1l-0.1,0.1
					l-6,1.3h-0.1L11,43.6l-0.2-1.1v-0.1l0.1-0.1l2.4-0.5l-0.6-2.6l-2.4,0.5h-0.1l-0.1-0.1l-0.2-1.1v-0.1l0.1-0.1L15.9,36.9z"/>
				<path class="st4" d="M14.9,45.1c0.4-0.3,0.8-0.4,1.2-0.5c0.4-0.1,0.9-0.1,1.3,0s0.8,0.2,1.2,0.5c0.4,0.2,0.7,0.6,0.9,0.9
					c0.3,0.4,0.4,0.8,0.5,1.2s0.1,0.9,0,1.3c-0.1,0.4-0.2,0.8-0.5,1.2c-0.2,0.4-0.6,0.7-0.9,0.9c-0.4,0.3-0.8,0.4-1.2,0.5
					c-0.4,0.1-0.9,0.1-1.3,0s-0.8-0.2-1.2-0.5c-0.4-0.2-0.7-0.6-0.9-0.9c-0.3-0.4-0.4-0.8-0.5-1.2s-0.1-0.9,0-1.3
					c0.1-0.4,0.2-0.8,0.5-1.2C14.2,45.6,14.5,45.3,14.9,45.1z M15.7,46.3c-0.2,0.1-0.4,0.3-0.5,0.5C15,47,15,47.2,14.9,47.5
					c0,0.2,0,0.5,0,0.7s0.1,0.5,0.3,0.7c0.1,0.2,0.3,0.4,0.5,0.5s0.4,0.2,0.7,0.3c0.2,0,0.5,0,0.7,0s0.5-0.1,0.7-0.3
					c0.2-0.1,0.4-0.3,0.5-0.5s0.2-0.4,0.3-0.7c0-0.2,0.1-0.5,0-0.7c0-0.2-0.1-0.5-0.3-0.7c-0.1-0.2-0.3-0.4-0.5-0.5
					s-0.4-0.2-0.7-0.3c-0.2,0-0.5,0-0.7,0C16.1,46.1,15.9,46.2,15.7,46.3z"/>
				<path class="st4" d="M22,49.4l0.1-0.1h0.1l1.8,1.4c0.2,0.2,0.4,0.4,0.5,0.6c0.1,0.2,0.2,0.5,0.3,0.8c0,0.3,0,0.5,0,0.8
					c-0.1,0.3-0.2,0.5-0.4,0.7c-0.2,0.2-0.4,0.4-0.6,0.5s-0.5,0.2-0.8,0.3c-0.3,0-0.5,0-0.8,0c-0.3-0.1-0.5-0.2-0.7-0.4l-0.8-0.6
					l-1.3,1.7l-0.1,0.1h-0.1l-0.9-0.7l-0.1-0.1v-0.1L22,49.4z M22.2,52.9c0.2,0.1,0.3,0.2,0.5,0.1c0.2,0,0.4-0.1,0.5-0.3
					s0.2-0.3,0.1-0.5c0-0.2-0.1-0.3-0.3-0.5l-0.7-0.5l-0.9,1.1L22.2,52.9z"/>
				<path class="st4" d="M25.6,52.5c0-0.1,0-0.1,0.1-0.1c0,0,0.1,0,0.2,0l1,0.3c0,0,0.1,0,0.1,0.1v0.1l-0.2,3.2l0,0l2.3-2.7
					c0-0.1,0.1-0.1,0.2-0.1h0.2c0.1,0,0.1,0.1,0.1,0.1L30,57l0,0l1.7-2.8c0,0,0.1,0,0.1-0.1h0.1l1,0.3c0.1,0,0.1,0.1,0.1,0.1
					s0,0.1,0,0.2l-3.5,5.5c0,0.1-0.1,0.1-0.2,0.1h-0.1c-0.1,0-0.1-0.1-0.1-0.1l-0.5-4.1l0,0l-2.7,3.1c-0.1,0.1-0.1,0.1-0.2,0.1h-0.1
					c0,0-0.1,0-0.1-0.1v-0.1L25.6,52.5z"/>
				<path class="st4" d="M33.8,57.8c0-0.5,0-0.9,0.1-1.3c0.1-0.4,0.3-0.8,0.6-1.1s0.6-0.6,1-0.8s0.8-0.3,1.3-0.4
					c0.5,0,0.9,0,1.3,0.1c0.4,0.1,0.8,0.3,1.1,0.6s0.6,0.6,0.8,1s0.3,0.8,0.4,1.3c0,0.5,0,0.9-0.1,1.3c-0.1,0.4-0.3,0.8-0.6,1.1
					s-0.6,0.6-1,0.8s-0.8,0.3-1.3,0.4c-0.5,0-0.9,0-1.3-0.1c-0.4-0.1-0.8-0.3-1.1-0.6s-0.6-0.6-0.8-1C34,58.7,33.9,58.3,33.8,57.8z
					 M35.3,57.7c0,0.3,0.1,0.5,0.2,0.7c0.1,0.2,0.3,0.4,0.5,0.5c0.2,0.2,0.4,0.3,0.6,0.3c0.2,0.1,0.5,0.1,0.7,0.1
					c0.3,0,0.5-0.1,0.7-0.2c0.2-0.1,0.4-0.3,0.5-0.5s0.3-0.4,0.3-0.6c0.1-0.2,0.1-0.5,0.1-0.7c0-0.3-0.1-0.5-0.2-0.7
					c-0.1-0.2-0.3-0.4-0.5-0.6c-0.2-0.2-0.4-0.3-0.6-0.3c-0.2-0.1-0.5-0.1-0.7-0.1c-0.3,0-0.5,0.1-0.7,0.2c-0.2,0.1-0.4,0.3-0.5,0.5
					c-0.2,0.2-0.3,0.4-0.3,0.6C35.3,57.2,35.3,57.4,35.3,57.7z"/>
				<path class="st4" d="M41.1,53.6L41.1,53.6c0-0.1,0-0.2,0.1-0.2l2.5-1.2c0.3-0.1,0.5-0.2,0.8-0.2s0.5,0,0.8,0.1
					c0.2,0.1,0.5,0.2,0.7,0.4s0.4,0.4,0.5,0.6c0.2,0.4,0.2,0.8,0.1,1.2c-0.1,0.4-0.3,0.8-0.6,1.1l2.2,1.6c0.1,0,0.1,0.1,0.1,0.2
					c0,0.1,0,0.1-0.1,0.1L47,57.8h-0.1h-0.1l-2.2-1.7L44,56.4l1,2.1v0.1c0,0,0,0.1-0.1,0.1l-1,0.5h-0.1c0,0-0.1,0-0.1-0.1L41.1,53.6
					z M44.8,54.8c0.2-0.1,0.3-0.2,0.4-0.4c0.1-0.2,0-0.4,0-0.6c-0.1-0.2-0.2-0.3-0.4-0.4c-0.2-0.1-0.4-0.1-0.5,0L43.1,54l0.6,1.3
					L44.8,54.8z"/>
				<path class="st4" d="M46.5,50.9c0,0-0.1-0.1-0.1-0.2c0-0.1,0-0.1,0.1-0.2l0.8-0.8c0,0,0.1-0.1,0.2-0.1c0.1,0,0.1,0,0.2,0.1
					l1.7,1.8L49,48.3v-0.1v-0.1l0.8-0.8c0.1-0.1,0.1-0.1,0.2,0c0.1,0,0.1,0.1,0.1,0.2l0.3,3.5l3.8,0.6c0.1,0,0.1,0.1,0.2,0.1
					c0,0.1,0,0.2-0.1,0.2l-0.9,0.9c0,0-0.1,0-0.1,0.1h-0.1l-3.6-0.6l1.9,2c0,0,0.1,0.1,0.1,0.2c0,0.1,0,0.1-0.1,0.2L51,55.2
					c0,0-0.1,0.1-0.2,0.1c-0.1,0-0.1,0-0.2-0.1L46.5,50.9z"/>
				<path class="st4" d="M50.7,46.3L50.7,46.3l-0.1-0.2l1.8-3.4l0.1-0.1h0.1l0.9,0.5l0.1,0.1v0.1l-1.2,2.3l1,0.6l1-1.9l0.1-0.1h0.1
					l0.9,0.5l0.1,0.1v0.1l-1,1.9l1.1,0.6l1.2-2.3L57,45h0.1l0.9,0.5l0.1,0.1v0.1l-1.8,3.4l-0.1,0.1h-0.1L50.7,46.3z"/>
				<path class="st4" d="M53.1,41.6C53.1,41.6,53,41.6,53.1,41.6L53,41.4l0.6-2.7c0.1-0.3,0.2-0.5,0.3-0.7s0.3-0.4,0.6-0.5
					c0.2-0.1,0.5-0.2,0.7-0.3c0.3-0.1,0.5-0.1,0.8,0c0.4,0.1,0.8,0.3,1,0.6c0.3,0.3,0.4,0.7,0.5,1.1l2.6-0.8c0.1,0,0.1,0,0.2,0
					c0.1,0,0.1,0.1,0.1,0.2L60,39.5v0.1c0,0,0,0-0.1,0l-2.7,0.7L57.1,41l2.3,0.5c0,0,0.1,0,0.1,0.1v0.1l-0.2,1.1c0,0,0,0.1-0.1,0.1
					h-0.1L53.1,41.6z M56.2,39.4c0-0.2,0-0.4-0.1-0.5c-0.1-0.2-0.3-0.3-0.5-0.3s-0.4,0-0.5,0.1c-0.2,0.1-0.3,0.3-0.3,0.4l-0.3,1.3
					l1.4,0.3L56.2,39.4z"/>
			</g>
		</g>
	</g>
	<g>
		<g class="st2">
			<polygon class="st3" points="48.3,32.1 39.5,30.8 35.6,22.8 31.7,30.7 23,32 29.3,38.2 27.8,46.9 35.6,42.8 43.4,46.9 41.9,38.2 
							"/>
		</g>
		<g>
			<polygon class="st3" points="47.7,31.5 39,30.2 35.1,22.3 31.1,30.2 22.4,31.4 28.7,37.6 27.2,46.3 35,42.2 42.8,46.3 41.4,37.6 
							"/>
		</g>
	</g>
	<g>
		<g>
			<g>
				<polygon class="st5" points="22.4,31.4 28.7,37.6 35,34.3 				"/>
				<polygon class="st5" points="35,22.3 38.9,30.2 47.7,31.5 35,34.3 				"/>
				
					<linearGradient id="SVGID_1_" gradientUnits="userSpaceOnUse" x1="40.1159" y1="39.8587" x2="38.3305" y2="40.9563" gradientTransform="matrix(1 0 0 -1 0 72)">
					<stop  offset="0" style="stop-color:#EADCE0"/>
					<stop  offset="1" style="stop-color:#DACCD2"/>
				</linearGradient>
				<polygon class="st6" points="38.9,30.2 47.7,31.5 35,34.3 				"/>
				<polygon class="st4" points="22.4,31.4 31.1,30.2 35,22.3 35,34.3 				"/>
				<polygon class="st5" points="35,34.3 41.3,37.6 42.8,46.3 35,42.2 				"/>
				<polygon class="st4" points="28.7,37.6 27.2,46.3 35,42.2 35,34.3 				"/>
				<polygon class="st4" points="47.7,31.5 41.3,37.6 35,34.3 				"/>
			</g>
			<polygon class="st4" points="35,34.3 31.1,30.2 22.4,31.4 			"/>
		</g>
		
			<linearGradient id="SVGID_2_" gradientUnits="userSpaceOnUse" x1="30.4636" y1="33.1217" x2="29.8862" y2="34.4118" gradientTransform="matrix(1 0 0 -1 0 72)">
			<stop  offset="0" style="stop-color:#EADCE0"/>
			<stop  offset="1" style="stop-color:#DACCD2"/>
		</linearGradient>
		<polygon class="st7" points="28.7,37.6 35,34.3 27.2,46.3 		"/>
	</g>
</g>
</svg>
